<svg viewBox="0 0 96 96" xmlns="http://www.w3.org/2000/svg">
  <path fill="#7C3AED" d="M 81.0 48.0 L 80.87 50.88 L 80.5 53.73 L 79.88 56.54 L 79.01 59.29 L 77.91 61.95 L 76.58 64.5 L 75.03 66.93 L 73.28 69.21 L 71.33 71.33 L 69.21 73.28 L 66.93 75.03 L 64.5 76.58 L 61.95 77.91 L 59.29 79.01 L 56.54 79.88 L 53.73 80.5 L 50.88 80.87 L 48.0 81.0 L 45.12 80.87 L 42.27 80.5 L 39.46 79.88 L 36.71 79.01 L 34.05 77.91 L 31.5 76.58 L 29.07 75.03 L 26.79 73.28 L 24.67 71.33 L 22.72 69.21 L 20.97 66.93 L 19.42 64.5 L 18.09 61.95 L 16.99 59.29 L 16.12 56.54 L 15.5 53.73 L 15.13 50.88 L 15.0 48.0 L 15.13 45.12 L 15.5 42.27 L 16.12 39.46 L 16.99 36.71 L 18.09 34.05 L 19.42 31.5 L 20.97 29.07 L 22.72 26.79 L 24.67 24.67 L 26.79 22.72 L 29.07 20.97 L 31.5 19.42 L 34.05 18.09 L 36.71 16.99 L 39.46 16.12 L 42.27 15.5 L 45.12 15.13 L 48.0 15.0 L 50.88 15.13 L 53.73 15.5 L 56.54 16.12 L 59.29 16.99 L 61.95 18.09 L 64.5 19.42 L 66.93 20.97 L 69.21 22.72 L 71.33 24.67 L 73.28 26.79 L 75.03 29.07 L 76.58 31.5 L 77.91 34.05 L 79.01 36.71 L 79.88 39.46 L 80.5 42.27 L 80.87 45.12 L 70.39 46.04 L 69.62 44.19 L 68.72 42.45 L 67.68 40.84 L 66.55 39.35 L 65.32 38.0 L 64.02 36.78 L 62.66 35.69 L 61.26 34.74 L 59.83 33.9 L 58.37 33.19 L 56.9 32.58 L 55.42 32.08 L 53.94 31.69 L 52.45 31.38 L 50.97 31.17 L 49.48 31.04 L 48.0 31.0 L 46.52 31.04 L 45.03 31.17 L 43.55 31.38 L 42.06 31.69 L 40.58 32.08 L 39.1 32.58 L 37.63 33.19 L 36.17 33.9 L 34.74 34.74 L 33.34 35.69 L 31.98 36.78 L 30.68 38.0 L 29.45 39.35 L 28.32 40.84 L 27.28 42.45 L 26.38 44.19 L 25.61 46.04 L 25.0 48.0 L 24.57 50.05 L 24.32 52.17 L 24.28 54.35 L 24.46 56.57 L 24.86 58.79 L 25.48 61.0 L 26.34 63.17 L 27.43 65.26 L 28.74 67.26 L 30.26 69.14 L 31.99 70.87 L 33.9 72.42 L 35.98 73.77 L 38.21 74.91 L 40.55 75.81 L 42.98 76.47 L 45.47 76.87 L 48.0 77.0 L 50.53 76.87 L 53.02 76.47 L 55.45 75.81 L 57.79 74.91 L 60.02 73.77 L 62.1 72.42 L 64.01 70.87 L 65.74 69.14 L 67.26 67.26 L 68.57 65.26 L 69.66 63.17 L 70.52 61.0 L 71.14 58.79 L 71.54 56.57 L 71.72 54.35 L 71.68 52.17 L 71.43 50.05 L 71.0 48.0 Z"></path>
</svg>